{"title":"Alvin.And.The.Chipmunks.The.Road.Chip.2015.BRRip.480p.x264.AAC-V","uid":13739674,"size":346634450,"categoryP":"video","categoryS":"movies","magnet":"?xt=urn:btih:f5c129151921b87d24f288c8d44e55ae495ce970&amp;dn=Alvin.And.The.Chipmunks.The.Road.Chip.2015.BRRip.480p.x264.AAC-V&amp;tr=udp%3A%2F%2Ftracker.leechers-paradise.org%3A6969&amp;tr=udp%3A%2F%2Fzer0day.ch%3A1337&amp;tr=udp%3A%2F%2Fopen.demonii.com%3A1337&amp;tr=udp%3A%2F%2Ftracker.coppersurfer.tk%3A6969&amp;tr=udp%3A%2F%2Fexodus.desync.com%3A6969","seeders":4,"leechers":5,"uploader":"VYTOP2PDL","files":7,"time":1457063256,"description":"____    ____ ____    ____ .___________.  ______   \r\n     /   /      /   / |           | /  __    \r\n    /   /      /   /  `---|  |----`|  |  |  | \r\n        /     _    _/       |  |     |  |  |  | \r\n       /        |  |         |  |     |  `--'  | \r\n    __/         |__|         |__|      ______/  \r\n                                                  \r\nPresenting Small Encodes with quality for years!\r\n                                                                                                   \r\n                                                                                                   \r\n\r\n\r\nAlvin.And.The.Chipmunks.The.Road.Chip.2015.BRRip.480p.x264.AAC-VYTO\r\n\r\n\r\nGenre: Animation, Adventure, Comedy  \nhttp://www.imdb.com/title/tt2974918/\r\n\r\n\r\nFormat                                   : MPEG-4\r\nFile size                                : 325 MiB\r\nDuration                                 : 1h 32mn\r\nOverall bit rate mode                    : Variable\r\nOverall bit rate                         : 495 Kbps\r\n\r\nVideo\r\nFormat                                   : AVC\r\nBit rate                                 : 461 Kbps\r\nWidth                                    : 720 pixels\r\nHeight                                   : 384 pixels\r\nDisplay aspect ratio                     : 1.85:1\r\nFrame rate mode                          : Constant\r\nFrame rate                               : 23.976 fps\r\nBit depth                                : 8 bits\r\nStream size                              : 302 MiB (93%)\r\nWriting library                          : x264 \r\n\r\nAudio\r\nFormat                                   : AAC\r\nBit rate mode                            : Variable\r\nBit rate                                 : 32.0 Kbps\r\nChannel(s)                               : 2 channels \r\nChannel positions                        : Front: L R\r\nSampling rate                            : 48.0 KHz \r\nStream size                              : 21.0 MiB (6%)\r\nLanguage                                 : English\r\n\r\nSubtitle                                 : Yes (English)\r\n\r\nScreen Shots: (Click to view)\r\n \nhttp://ititli.com/XwL \nhttp://ititli.com/Xwd \nhttp://ititli.com/Xw0 \nhttp://ititli.com/XwA \nhttp://ititli.com/Xwl \nhttp://ititli.com/Xwm \nhttp://ititli.com/Xwx \nhttp://ititli.com/Xw7 \nhttp://ititli.com/XwC\r\n\r\n----------------------------------------------------------------------------------------------------\r\n\r\n\r\nEncoder Notes: Looking For Early Access To Anything You Can Provide WEBDL, DVDScr, DVDR, BluRay,\r\nDirect Audio, Music Releases and Seedboxes. If You Got anything to offer please contact us.\r\n\r\nSupport us by donating BC - 1FgwdzPsd1y25Gea8wP1qni35uGCtmkRCD\r\n\r\nSend some love!\r\nFind us and join us!","torrent":{"xt":"urn:btih:f5c129151921b87d24f288c8d44e55ae495ce970","amp;dn":"Alvin.And.The.Chipmunks.The.Road.Chip.2015.BRRip.480p.x264.AAC-V","amp;tr":["udp%3A%2F%2Ftracker.leechers-paradise.org%3A6969","udp%3A%2F%2Fzer0day.ch%3A1337","udp%3A%2F%2Fopen.demonii.com%3A1337","udp%3A%2F%2Ftracker.coppersurfer.tk%3A6969","udp%3A%2F%2Fexodus.desync.com%3A6969"],"infoHash":"f5c129151921b87d24f288c8d44e55ae495ce970","infoHashBuffer":{"type":"Buffer","data":[245,193,41,21,25,33,184,125,36,242,136,200,212,78,85,174,73,92,233,112]},"announce":[],"urlList":[]}}